<mxfile host="app.diagrams.net" modified="2021-06-25T06:50:18.677Z" agent="5.0 (Windows NT 10.0; Win64; x64) AppleWebKit/537.36 (KHTML, like Gecko) Chrome/91.0.4472.114 Safari/537.36" etag="dIRKdQALcrehQfk1lsnl" version="12.9.6" type="github">
  <diagram id="JXCHo4Jb7-5_XRBAKlKE" name="第1頁">
    <mxGraphModel dx="1422" dy="716" grid="1" gridSize="10" guides="1" tooltips="1" connect="1" arrows="1" fold="1" page="1" pageScale="1" pageWidth="827" pageHeight="1169" math="0" shadow="0">
      <root>
        <mxCell id="0" />
        <mxCell id="1" parent="0" />
        <mxCell id="C2pHTevATGl-EstLI-Aq-13" style="rounded=0;orthogonalLoop=1;jettySize=auto;html=1;exitX=0.5;exitY=1;exitDx=0;exitDy=0;endArrow=none;endFill=0;" parent="1" source="C2pHTevATGl-EstLI-Aq-1" target="C2pHTevATGl-EstLI-Aq-12" edge="1">
          <mxGeometry relative="1" as="geometry" />
        </mxCell>
        <mxCell id="C2pHTevATGl-EstLI-Aq-1" value="RTMS" style="swimlane;" parent="1" vertex="1" collapsed="1">
          <mxGeometry x="170" y="52" width="70" height="23" as="geometry">
            <mxRectangle x="180" y="250" width="200" height="70" as="alternateBounds" />
          </mxGeometry>
        </mxCell>
        <mxCell id="C2pHTevATGl-EstLI-Aq-10" value="即時蒐集機台產出數量工具&lt;br&gt;" style="text;html=1;align=left;verticalAlign=middle;resizable=0;points=[];autosize=1;strokeColor=none;imageHeight=227;imageAspect=1;labelPosition=center;verticalLabelPosition=middle;rounded=0;shadow=0;arcSize=12;absoluteArcSize=0;" parent="C2pHTevATGl-EstLI-Aq-1" vertex="1">
          <mxGeometry x="20" y="30" width="160" height="20" as="geometry" />
        </mxCell>
        <mxCell id="C2pHTevATGl-EstLI-Aq-14" value="RTMS" style="swimlane;" parent="C2pHTevATGl-EstLI-Aq-1" vertex="1" collapsed="1">
          <mxGeometry x="90" y="-50" width="70" height="23" as="geometry">
            <mxRectangle x="180" y="250" width="200" height="70" as="alternateBounds" />
          </mxGeometry>
        </mxCell>
        <mxCell id="C2pHTevATGl-EstLI-Aq-15" value="即時蒐集機台產出數量工具&lt;br&gt;" style="text;html=1;align=left;verticalAlign=middle;resizable=0;points=[];autosize=1;strokeColor=none;imageHeight=227;imageAspect=1;labelPosition=center;verticalLabelPosition=middle;rounded=0;shadow=0;arcSize=12;absoluteArcSize=0;" parent="C2pHTevATGl-EstLI-Aq-14" vertex="1">
          <mxGeometry x="20" y="30" width="160" height="20" as="geometry" />
        </mxCell>
        <mxCell id="C2pHTevATGl-EstLI-Aq-12" value="" style="aspect=fixed;html=1;points=[];align=center;image;fontSize=12;image=img/lib/azure2/management_governance/MachinesAzureArc.svg;rounded=0;shadow=0;" parent="1" vertex="1">
          <mxGeometry x="189.47" y="112" width="31.06" height="48" as="geometry" />
        </mxCell>
        <mxCell id="C2pHTevATGl-EstLI-Aq-16" value="MES" style="swimlane;" parent="1" vertex="1" collapsed="1">
          <mxGeometry x="20" y="220" width="70" height="23" as="geometry">
            <mxRectangle x="320" y="280" width="150" height="50" as="alternateBounds" />
          </mxGeometry>
        </mxCell>
        <mxCell id="C2pHTevATGl-EstLI-Aq-22" value="ERP" style="swimlane;" parent="1" vertex="1" collapsed="1">
          <mxGeometry x="20" y="130" width="70" height="23" as="geometry">
            <mxRectangle x="320" y="223" width="150" height="50" as="alternateBounds" />
          </mxGeometry>
        </mxCell>
        <mxCell id="C2pHTevATGl-EstLI-Aq-23" value="EQMS" style="swimlane;" parent="1" vertex="1" collapsed="1">
          <mxGeometry x="20" y="250" width="70" height="23" as="geometry">
            <mxRectangle x="320" y="400" width="150" height="50" as="alternateBounds" />
          </mxGeometry>
        </mxCell>
        <mxCell id="C2pHTevATGl-EstLI-Aq-24" value="EAP" style="swimlane;" parent="1" vertex="1" collapsed="1">
          <mxGeometry x="20" y="280" width="70" height="23" as="geometry">
            <mxRectangle x="320" y="460" width="150" height="50" as="alternateBounds" />
          </mxGeometry>
        </mxCell>
        <mxCell id="C2pHTevATGl-EstLI-Aq-25" value="RCS" style="swimlane;" parent="1" vertex="1" collapsed="1">
          <mxGeometry x="490" y="460" width="70" height="23" as="geometry">
            <mxRectangle x="490" y="460" width="150" height="50" as="alternateBounds" />
          </mxGeometry>
        </mxCell>
        <mxCell id="C2pHTevATGl-EstLI-Aq-26" value="TPDM" style="swimlane;" parent="1" vertex="1" collapsed="1">
          <mxGeometry x="490" y="400" width="70" height="23" as="geometry">
            <mxRectangle x="490" y="400" width="150" height="50" as="alternateBounds" />
          </mxGeometry>
        </mxCell>
        <mxCell id="C2pHTevATGl-EstLI-Aq-27" value="PLS" style="swimlane;" parent="1" vertex="1" collapsed="1">
          <mxGeometry x="20" y="190" width="70" height="23" as="geometry">
            <mxRectangle x="490" y="280" width="150" height="50" as="alternateBounds" />
          </mxGeometry>
        </mxCell>
        <mxCell id="C2pHTevATGl-EstLI-Aq-28" value="EDC" style="swimlane;" parent="1" vertex="1" collapsed="1">
          <mxGeometry x="20" y="160" width="70" height="23" as="geometry">
            <mxRectangle x="490" y="173" width="150" height="50" as="alternateBounds" />
          </mxGeometry>
        </mxCell>
        <mxCell id="-mpgsvMdsq3sNl20b9MQ-1" value="VIDAS" style="swimlane;" parent="1" vertex="1" collapsed="1">
          <mxGeometry x="20" y="40" width="70" height="23" as="geometry">
            <mxRectangle x="20" y="40" width="150" height="50" as="alternateBounds" />
          </mxGeometry>
        </mxCell>
        <mxCell id="-mpgsvMdsq3sNl20b9MQ-2" value="Tango" style="swimlane;" parent="1" vertex="1" collapsed="1">
          <mxGeometry x="20" y="70" width="70" height="23" as="geometry">
            <mxRectangle x="20" y="100" width="150" height="50" as="alternateBounds" />
          </mxGeometry>
        </mxCell>
        <mxCell id="-mpgsvMdsq3sNl20b9MQ-3" value="PDFs" style="swimlane;" parent="1" vertex="1" collapsed="1">
          <mxGeometry x="20" y="100" width="70" height="23" as="geometry">
            <mxRectangle x="20" y="160" width="150" height="50" as="alternateBounds" />
          </mxGeometry>
        </mxCell>
      </root>
    </mxGraphModel>
  </diagram>
</mxfile>
